<svg version="1.1" xmlns="http://www.w3.org/2000/svg" xmlns:xlink="http://www.w3.org/1999/xlink" width="50px" height="50px" viewBox="0,0,256,256">
<g fill="#38ab4c" fill-rule="nonzero" stroke="none" stroke-width="1" stroke-linecap="butt" stroke-linejoin="miter" stroke-miterlimit="10" stroke-dasharray="" stroke-dashoffset="0" font-family="none" font-weight="none" font-size="none" text-anchor="none" style="mix-blend-mode: normal"><g transform="scale(5.12,5.12)"><path d="M25,1.04297c-0.35712,0 -0.71472,0.16509 -0.88672,0.49609l-1.30469,2.50586l-2.94336,0.40234c-0.383,0.052 -0.70236,0.32241 -0.81836,0.69141c-0.116,0.369 -0.00861,0.77216 0.27539,1.03516l2.09766,1.93164l-0.49219,2.7168c-0.067,0.372 0.08081,0.75052 0.38281,0.97851c0.303,0.228 0.70887,0.2647 1.04688,0.0957l2.64258,-1.31641l2.64453,1.31445c0.141,0.071 0.29331,0.10547 0.44531,0.10547c0.212,0 0.42456,-0.06622 0.60156,-0.19922c0.302,-0.228 0.45081,-0.60552 0.38281,-0.97851l-0.49219,-2.7168l2.09766,-1.93359c0.283,-0.262 0.38944,-0.6642 0.27344,-1.0332c-0.116,-0.369 -0.43341,-0.64041 -0.81641,-0.69141l-2.94336,-0.40234l-1.30664,-2.50586c-0.1725,-0.331 -0.52959,-0.49609 -0.88672,-0.49609zM25,12.81055l-1.75,0.86914c-0.41,0.21 -0.87984,0.32031 -1.33984,0.32031c-0.25,0 -0.49047,-0.02961 -0.73047,-0.09961l-6.93945,8.01953c-0.22,0.25 -0.30117,0.60969 -0.20117,0.92969c0.09,0.33 0.35187,0.57969 0.67188,0.67969c0.2,0.06 4.96922,1.4707 10.44922,1.4707c5.48,0 10.00922,-1.4107 10.19922,-1.4707c0.32,-0.11 0.57016,-0.35945 0.66016,-0.68945c0.09,-0.32 0.02078,-0.66992 -0.19922,-0.91992l-6.95117,-8.0293c-0.25,0.08 -0.5193,0.10938 -0.7793,0.10938c-0.46,0 -0.91984,-0.11055 -1.33984,-0.31055zM16.03906,25.92969l-6.25,6.32031c-0.22,0.22 -0.3193,0.52008 -0.2793,0.83008c0.04,0.3 0.2107,0.57047 0.4707,0.73047c0.15,0.09 3.77922,2.18945 15.19922,2.18945c11.26,0 14.54086,-1.9907 14.88086,-2.2207c0.25,-0.17 0.40945,-0.42852 0.43945,-0.72852c0.02,-0.3 -0.07906,-0.59078 -0.28906,-0.80078l-6.24023,-6.28906c-1.97,0.46 -5.20055,1.03906 -8.81055,1.03906c-3.7,0 -7.10109,-0.61031 -9.12109,-1.07031zM12.09961,36.69922l-5.82031,6.02148c-0.21,0.22 -0.30953,0.52984 -0.26953,0.83984c0.04,0.3 0.23,0.56875 0.5,0.71875c0.2,0.11 4.9707,2.7207 18.7207,2.7207c13.77,0 18.11883,-2.63023 18.29883,-2.74023c0.26,-0.16 0.43094,-0.43047 0.46094,-0.73047c0.04,-0.3 -0.05953,-0.59836 -0.26953,-0.81836l-5.80078,-5.9707c-2.44,0.65 -6.41023,1.25977 -12.74023,1.25977c-6.49,0 -10.60008,-0.65078 -13.08008,-1.30078z"></path>
</g>
</g>
</svg>